<mxfile host="app.diagrams.net" modified="2023-11-19T01:50:49.761Z" agent="Mozilla/5.0 (Windows NT 10.0; Win64; x64) AppleWebKit/537.36 (KHTML, like Gecko) Chrome/119.0.0.0 Safari/537.36 Edg/119.0.0.0" etag="EWhMJq7kan5uqZM4kqam" version="22.1.3" type="github">
  <diagram name="Page-1" id="c7488fd3-1785-93aa-aadb-54a6760d102a">
    <mxGraphModel dx="946" dy="673" grid="1" gridSize="10" guides="1" tooltips="1" connect="1" arrows="1" fold="1" page="1" pageScale="1" pageWidth="1100" pageHeight="850" background="none" math="0" shadow="0">
      <root>
        <mxCell id="0" />
        <mxCell id="1" parent="0" />
        <mxCell id="m_UXM7G4h7A_9IYMiCdS-9" value="&lt;font style=&quot;font-size: 14px;&quot;&gt;项目总体计划流程图&lt;/font&gt;" style="swimlane;html=1;childLayout=stackLayout;horizontal=1;startSize=20;horizontalStack=0;rounded=0;shadow=0;labelBackgroundColor=none;strokeWidth=1;fontFamily=Verdana;fontSize=8;align=center;" vertex="1" parent="1">
          <mxGeometry x="160" y="90" width="680" height="470" as="geometry" />
        </mxCell>
        <mxCell id="m_UXM7G4h7A_9IYMiCdS-14" value="" style="swimlane;horizontal=0;whiteSpace=wrap;html=1;" vertex="1" parent="m_UXM7G4h7A_9IYMiCdS-9">
          <mxGeometry y="20" width="680" height="450" as="geometry" />
        </mxCell>
        <mxCell id="m_UXM7G4h7A_9IYMiCdS-21" style="edgeStyle=orthogonalEdgeStyle;rounded=0;orthogonalLoop=1;jettySize=auto;html=1;exitX=0.5;exitY=1;exitDx=0;exitDy=0;" edge="1" parent="m_UXM7G4h7A_9IYMiCdS-14" source="m_UXM7G4h7A_9IYMiCdS-16" target="m_UXM7G4h7A_9IYMiCdS-17">
          <mxGeometry relative="1" as="geometry" />
        </mxCell>
        <mxCell id="m_UXM7G4h7A_9IYMiCdS-16" value="概要设计阶段" style="rounded=0;whiteSpace=wrap;html=1;" vertex="1" parent="m_UXM7G4h7A_9IYMiCdS-14">
          <mxGeometry x="350" y="135" width="120" height="40" as="geometry" />
        </mxCell>
        <mxCell id="m_UXM7G4h7A_9IYMiCdS-20" style="edgeStyle=orthogonalEdgeStyle;rounded=0;orthogonalLoop=1;jettySize=auto;html=1;exitX=0.5;exitY=1;exitDx=0;exitDy=0;entryX=0.5;entryY=0;entryDx=0;entryDy=0;" edge="1" parent="m_UXM7G4h7A_9IYMiCdS-14" source="m_UXM7G4h7A_9IYMiCdS-15" target="m_UXM7G4h7A_9IYMiCdS-16">
          <mxGeometry relative="1" as="geometry" />
        </mxCell>
        <mxCell id="m_UXM7G4h7A_9IYMiCdS-15" value="需求分析阶段" style="rounded=0;whiteSpace=wrap;html=1;" vertex="1" parent="m_UXM7G4h7A_9IYMiCdS-14">
          <mxGeometry x="350" y="65" width="120" height="40" as="geometry" />
        </mxCell>
        <mxCell id="m_UXM7G4h7A_9IYMiCdS-22" style="edgeStyle=orthogonalEdgeStyle;rounded=0;orthogonalLoop=1;jettySize=auto;html=1;exitX=0.5;exitY=1;exitDx=0;exitDy=0;entryX=0.5;entryY=0;entryDx=0;entryDy=0;" edge="1" parent="m_UXM7G4h7A_9IYMiCdS-14" source="m_UXM7G4h7A_9IYMiCdS-17" target="m_UXM7G4h7A_9IYMiCdS-18">
          <mxGeometry relative="1" as="geometry" />
        </mxCell>
        <mxCell id="m_UXM7G4h7A_9IYMiCdS-17" value="数据库设计阶段" style="rounded=0;whiteSpace=wrap;html=1;" vertex="1" parent="m_UXM7G4h7A_9IYMiCdS-14">
          <mxGeometry x="350" y="205" width="120" height="40" as="geometry" />
        </mxCell>
        <mxCell id="m_UXM7G4h7A_9IYMiCdS-23" style="edgeStyle=orthogonalEdgeStyle;rounded=0;orthogonalLoop=1;jettySize=auto;html=1;exitX=0.5;exitY=1;exitDx=0;exitDy=0;entryX=0.5;entryY=0;entryDx=0;entryDy=0;" edge="1" parent="m_UXM7G4h7A_9IYMiCdS-14" source="m_UXM7G4h7A_9IYMiCdS-18" target="m_UXM7G4h7A_9IYMiCdS-19">
          <mxGeometry relative="1" as="geometry" />
        </mxCell>
        <mxCell id="m_UXM7G4h7A_9IYMiCdS-18" value="详细设计阶段" style="rounded=0;whiteSpace=wrap;html=1;" vertex="1" parent="m_UXM7G4h7A_9IYMiCdS-14">
          <mxGeometry x="350" y="275" width="120" height="40" as="geometry" />
        </mxCell>
        <mxCell id="m_UXM7G4h7A_9IYMiCdS-27" style="edgeStyle=orthogonalEdgeStyle;rounded=0;orthogonalLoop=1;jettySize=auto;html=1;exitX=0.5;exitY=1;exitDx=0;exitDy=0;entryX=0.5;entryY=1;entryDx=0;entryDy=0;" edge="1" parent="m_UXM7G4h7A_9IYMiCdS-14" source="m_UXM7G4h7A_9IYMiCdS-19" target="m_UXM7G4h7A_9IYMiCdS-24">
          <mxGeometry relative="1" as="geometry" />
        </mxCell>
        <mxCell id="m_UXM7G4h7A_9IYMiCdS-19" value="编码测试阶段" style="rounded=0;whiteSpace=wrap;html=1;" vertex="1" parent="m_UXM7G4h7A_9IYMiCdS-14">
          <mxGeometry x="350" y="345" width="120" height="40" as="geometry" />
        </mxCell>
        <mxCell id="m_UXM7G4h7A_9IYMiCdS-26" style="edgeStyle=orthogonalEdgeStyle;rounded=0;orthogonalLoop=1;jettySize=auto;html=1;exitX=0.5;exitY=0;exitDx=0;exitDy=0;entryX=0.5;entryY=0;entryDx=0;entryDy=0;" edge="1" parent="m_UXM7G4h7A_9IYMiCdS-14" source="m_UXM7G4h7A_9IYMiCdS-24" target="m_UXM7G4h7A_9IYMiCdS-15">
          <mxGeometry relative="1" as="geometry" />
        </mxCell>
        <mxCell id="m_UXM7G4h7A_9IYMiCdS-24" value="敏捷过程&lt;br&gt;&lt;br&gt;瀑布开发" style="rounded=0;whiteSpace=wrap;html=1;" vertex="1" parent="m_UXM7G4h7A_9IYMiCdS-14">
          <mxGeometry x="90" y="135" width="110" height="180" as="geometry" />
        </mxCell>
        <mxCell id="m_UXM7G4h7A_9IYMiCdS-29" style="rounded=0;orthogonalLoop=1;jettySize=auto;html=1;exitX=0;exitY=0;exitDx=0;exitDy=0;entryX=1;entryY=0.5;entryDx=0;entryDy=0;" edge="1" parent="m_UXM7G4h7A_9IYMiCdS-14" source="m_UXM7G4h7A_9IYMiCdS-28" target="m_UXM7G4h7A_9IYMiCdS-15">
          <mxGeometry relative="1" as="geometry" />
        </mxCell>
        <mxCell id="m_UXM7G4h7A_9IYMiCdS-30" style="rounded=0;orthogonalLoop=1;jettySize=auto;html=1;exitX=0;exitY=0.25;exitDx=0;exitDy=0;entryX=1;entryY=0.5;entryDx=0;entryDy=0;" edge="1" parent="m_UXM7G4h7A_9IYMiCdS-14" source="m_UXM7G4h7A_9IYMiCdS-28" target="m_UXM7G4h7A_9IYMiCdS-16">
          <mxGeometry relative="1" as="geometry" />
        </mxCell>
        <mxCell id="m_UXM7G4h7A_9IYMiCdS-32" style="rounded=0;orthogonalLoop=1;jettySize=auto;html=1;exitX=0;exitY=0.75;exitDx=0;exitDy=0;entryX=1;entryY=0.5;entryDx=0;entryDy=0;" edge="1" parent="m_UXM7G4h7A_9IYMiCdS-14" source="m_UXM7G4h7A_9IYMiCdS-28" target="m_UXM7G4h7A_9IYMiCdS-18">
          <mxGeometry relative="1" as="geometry" />
        </mxCell>
        <mxCell id="m_UXM7G4h7A_9IYMiCdS-33" style="rounded=0;orthogonalLoop=1;jettySize=auto;html=1;exitX=0;exitY=1;exitDx=0;exitDy=0;entryX=1;entryY=0.5;entryDx=0;entryDy=0;" edge="1" parent="m_UXM7G4h7A_9IYMiCdS-14" source="m_UXM7G4h7A_9IYMiCdS-28" target="m_UXM7G4h7A_9IYMiCdS-19">
          <mxGeometry relative="1" as="geometry" />
        </mxCell>
        <mxCell id="m_UXM7G4h7A_9IYMiCdS-28" value="阶&lt;span style=&quot;white-space: pre;&quot;&gt;&#x9;&lt;/span&gt;技&lt;br&gt;段&lt;span style=&quot;white-space: pre;&quot;&gt;&#x9;&lt;/span&gt;术&lt;br&gt;评&lt;span style=&quot;white-space: pre;&quot;&gt;&#x9;&lt;/span&gt;评&lt;br&gt;估&lt;span style=&quot;white-space: pre;&quot;&gt;&#x9;&lt;/span&gt;估" style="rounded=0;whiteSpace=wrap;html=1;horizontal=1;rotation=0;" vertex="1" parent="m_UXM7G4h7A_9IYMiCdS-14">
          <mxGeometry x="570" y="147.5" width="80" height="155" as="geometry" />
        </mxCell>
        <mxCell id="m_UXM7G4h7A_9IYMiCdS-31" style="edgeStyle=orthogonalEdgeStyle;rounded=0;orthogonalLoop=1;jettySize=auto;html=1;exitX=0;exitY=0.5;exitDx=0;exitDy=0;entryX=1;entryY=0.5;entryDx=0;entryDy=0;" edge="1" parent="m_UXM7G4h7A_9IYMiCdS-14" source="m_UXM7G4h7A_9IYMiCdS-28" target="m_UXM7G4h7A_9IYMiCdS-17">
          <mxGeometry relative="1" as="geometry">
            <mxPoint x="490" y="210" as="targetPoint" />
          </mxGeometry>
        </mxCell>
      </root>
    </mxGraphModel>
  </diagram>
</mxfile>
